<svg version="1.1" xmlns="http://www.w3.org/2000/svg" xmlns:xlink="http://www.w3.org/1999/xlink" width="889.68359375" height="668"><defs/><g><g transform="translate(-46,-6) scale(1,1)"><rect fill="#C0C0C0" stroke="none" x="223" y="23" width="568" height="648" opacity="0.2"/></g><g transform="translate(-46,-6) scale(1,1)"><rect fill="#ffffff" stroke="none" x="216" y="16" width="568" height="648"/></g><g transform="translate(-46,-6) scale(1,1)"><path fill="none" stroke="#000000" d="M 216 16 L 784 16 L 784 664 L 216 664 L 216 16 Z Z" stroke-miterlimit="10"/></g><g transform="translate(-46,-6) scale(1,1)"><g><path fill="none" stroke="none"/><text fill="#000000" stroke="none" font-family="Arial" font-size="13px" font-style="normal" font-weight="bold" text-decoration="none" x="454.474609375" y="35.5">Aplicativo Quéh</text></g></g><g transform="translate(-46,-6) scale(1,1)"><path fill="#ffffff" stroke="none" d="M 88.30705539772727 321.68 C 88.30705539772727 316.886167936 92.19289772267273 313 96.986328125 313 C 101.77975852732727 313 105.66560085227273 316.886167936 105.66560085227273 321.68 C 105.66560085227273 326.473832064 101.77975852732727 330.36 96.986328125 330.36 C 92.19289772267273 330.36 88.30705539772727 326.473832064 88.30705539772727 321.68 Z"/></g><g transform="translate(-46,-6) scale(1,1)"><path fill="none" stroke="#000000" d="M 88.30705539772727 321.68 C 88.30705539772727 316.886167936 92.19289772267273 313 96.986328125 313 C 101.77975852732727 313 105.66560085227273 316.886167936 105.66560085227273 321.68 C 105.66560085227273 326.473832064 101.77975852732727 330.36 96.986328125 330.36 C 92.19289772267273 330.36 88.30705539772727 326.473832064 88.30705539772727 321.68 Z" stroke-miterlimit="10"/></g><g transform="translate(-46,-6) scale(1,1)"><path fill="none" stroke="#000000" d="M 96.986328125 330.36 L 96.986328125 347.64" stroke-miterlimit="10"/></g><g transform="translate(-46,-6) scale(1,1)"><path fill="none" stroke="#000000" d="M 87.79650994318182 336.84 L 106.17614630681818 336.84" stroke-miterlimit="10"/></g><g transform="translate(-46,-6) scale(1,1)"><path fill="none" stroke="#000000" d="M 96.986328125 347.64 L 84.22269176136363 365" stroke-miterlimit="10"/></g><g transform="translate(-46,-6) scale(1,1)"><path fill="none" stroke="#000000" d="M 96.986328125 347.64 L 109.74996448863637 365" stroke-miterlimit="10"/></g><g transform="translate(-46,-6) scale(1,1)"><g><path fill="none" stroke="none"/><text fill="#000000" stroke="none" font-family="Arial" font-size="13px" font-style="normal" font-weight="bold" text-decoration="none" x="63.02001953125" y="385.5">Interessado</text></g></g><g transform="translate(-46,-6) scale(1,1)"><path fill="#C0C0C0" stroke="none" d="M 279 168 C 279 158.6111584 314.36950079999997 151 358 151 C 401.63049920000003 151 437 158.6111584 437 168 C 437 177.3888416 401.63049920000003 185 358 185 C 314.36950079999997 185 279 177.3888416 279 168 Z" opacity="0.2"/></g><g transform="translate(-46,-6) scale(1,1)"><path fill="#ffffff" stroke="none" d="M 272 161 C 272 151.6111584 307.36950079999997 144 351 144 C 394.63049920000003 144 430 151.6111584 430 161 C 430 170.3888416 394.63049920000003 178 351 178 C 307.36950079999997 178 272 170.3888416 272 161 Z"/></g><g transform="translate(-46,-6) scale(1,1)"><path fill="none" stroke="#000000" d="M 272 161 C 272 151.6111584 307.36950079999997 144 351 144 C 394.63049920000003 144 430 151.6111584 430 161 C 430 170.3888416 394.63049920000003 178 351 178 C 307.36950079999997 178 272 170.3888416 272 161 Z" stroke-miterlimit="10"/></g><g transform="translate(-46,-6) scale(1,1)"><g><path fill="none" stroke="none"/><text fill="#000000" stroke="none" font-family="Arial" font-size="13px" font-style="normal" font-weight="bold" text-decoration="none" x="303.319580078125" y="168">Acessar sistema</text></g></g><g transform="translate(-46,-6) scale(1,1)"><path fill="#C0C0C0" stroke="none" d="M 279 232 C 279 222.6111584 315.936504 215 361.5 215 C 407.063496 215 444 222.6111584 444 232 C 444 241.3888416 407.063496 249 361.5 249 C 315.936504 249 279 241.3888416 279 232 Z" opacity="0.2"/></g><g transform="translate(-46,-6) scale(1,1)"><path fill="#ffffff" stroke="none" d="M 272 225 C 272 215.6111584 308.936504 208 354.5 208 C 400.063496 208 437 215.6111584 437 225 C 437 234.3888416 400.063496 242 354.5 242 C 308.936504 242 272 234.3888416 272 225 Z"/></g><g transform="translate(-46,-6) scale(1,1)"><path fill="none" stroke="#000000" d="M 272 225 C 272 215.6111584 308.936504 208 354.5 208 C 400.063496 208 437 215.6111584 437 225 C 437 234.3888416 400.063496 242 354.5 242 C 308.936504 242 272 234.3888416 272 225 Z" stroke-miterlimit="10"/></g><g transform="translate(-46,-6) scale(1,1)"><g><path fill="none" stroke="none"/><text fill="#000000" stroke="none" font-family="Arial" font-size="13px" font-style="normal" font-weight="bold" text-decoration="none" x="303.921875" y="232">Realizar cadastro</text></g></g><g transform="translate(-46,-6) scale(1,1)"><path fill="#C0C0C0" stroke="none" d="M 279 296 C 279 286.6111584 320.1897984 279 371 279 C 421.8102016 279 463 286.6111584 463 296 C 463 305.3888416 421.8102016 313 371 313 C 320.1897984 313 279 305.3888416 279 296 Z" opacity="0.2"/></g><g transform="translate(-46,-6) scale(1,1)"><path fill="#ffffff" stroke="none" d="M 272 289 C 272 279.6111584 313.1897984 272 364 272 C 414.8102016 272 456 279.6111584 456 289 C 456 298.3888416 414.8102016 306 364 306 C 313.1897984 306 272 298.3888416 272 289 Z"/></g><g transform="translate(-46,-6) scale(1,1)"><path fill="none" stroke="#000000" d="M 272 289 C 272 279.6111584 313.1897984 272 364 272 C 414.8102016 272 456 279.6111584 456 289 C 456 298.3888416 414.8102016 306 364 306 C 313.1897984 306 272 298.3888416 272 289 Z" stroke-miterlimit="10"/></g><g transform="translate(-46,-6) scale(1,1)"><g><path fill="none" stroke="none"/><text fill="#000000" stroke="none" font-family="Arial" font-size="13px" font-style="normal" font-weight="bold" text-decoration="none" x="320.280517578125" y="296">Listar anúncios</text></g></g><g transform="translate(-46,-6) scale(1,1)"><path fill="#C0C0C0" stroke="none" d="M 583 296 C 583 286.6111584 622.3989376 279 671 279 C 719.6010624 279 759 286.6111584 759 296 C 759 305.3888416 719.6010624 313 671 313 C 622.3989376 313 583 305.3888416 583 296 Z" opacity="0.2"/></g><g transform="translate(-46,-6) scale(1,1)"><path fill="#ffffff" stroke="none" d="M 576 289 C 576 279.6111584 615.3989376 272 664 272 C 712.6010624 272 752 279.6111584 752 289 C 752 298.3888416 712.6010624 306 664 306 C 615.3989376 306 576 298.3888416 576 289 Z"/></g><g transform="translate(-46,-6) scale(1,1)"><path fill="none" stroke="#000000" d="M 576 289 C 576 279.6111584 615.3989376 272 664 272 C 712.6010624 272 752 279.6111584 752 289 C 752 298.3888416 712.6010624 306 664 306 C 615.3989376 306 576 298.3888416 576 289 Z" stroke-miterlimit="10"/></g><g transform="translate(-46,-6) scale(1,1)"><g><path fill="none" stroke="none"/><text fill="#000000" stroke="none" font-family="Arial" font-size="13px" font-style="normal" font-weight="bold" text-decoration="none" x="610.16552734375" y="296">Enviar mensagens</text></g></g><g transform="translate(-46,-6) scale(1,1)"><path fill="#C0C0C0" stroke="none" d="M 583 344 C 583 334.6111584 623.0705104 327 672.5 327 C 721.9294896 327 762 334.6111584 762 344 C 762 353.3888416 721.9294896 361 672.5 361 C 623.0705104 361 583 353.3888416 583 344 Z" opacity="0.2"/></g><g transform="translate(-46,-6) scale(1,1)"><path fill="#ffffff" stroke="none" d="M 576 337 C 576 327.6111584 616.0705104 320 665.5 320 C 714.9294896 320 755 327.6111584 755 337 C 755 346.3888416 714.9294896 354 665.5 354 C 616.0705104 354 576 346.3888416 576 337 Z"/></g><g transform="translate(-46,-6) scale(1,1)"><path fill="none" stroke="#000000" d="M 576 337 C 576 327.6111584 616.0705104 320 665.5 320 C 714.9294896 320 755 327.6111584 755 337 C 755 346.3888416 714.9294896 354 665.5 354 C 616.0705104 354 576 346.3888416 576 337 Z" stroke-miterlimit="10"/></g><g transform="translate(-46,-6) scale(1,1)"><g><path fill="none" stroke="none"/><text fill="#000000" stroke="none" font-family="Arial" font-size="13px" font-style="normal" font-weight="bold" text-decoration="none" x="610.951416015625" y="344">Registrar interesse</text></g></g><g transform="translate(-46,-6) scale(1,1)"><path fill="#C0C0C0" stroke="none" d="M 279 360 C 279 350.6111584 320.1897984 343 371 343 C 421.8102016 343 463 350.6111584 463 360 C 463 369.3888416 421.8102016 377 371 377 C 320.1897984 377 279 369.3888416 279 360 Z" opacity="0.2"/></g><g transform="translate(-46,-6) scale(1,1)"><path fill="#ffffff" stroke="none" d="M 272 353 C 272 343.6111584 313.1897984 336 364 336 C 414.8102016 336 456 343.6111584 456 353 C 456 362.3888416 414.8102016 370 364 370 C 313.1897984 370 272 362.3888416 272 353 Z"/></g><g transform="translate(-46,-6) scale(1,1)"><path fill="none" stroke="#000000" d="M 272 353 C 272 343.6111584 313.1897984 336 364 336 C 414.8102016 336 456 343.6111584 456 353 C 456 362.3888416 414.8102016 370 364 370 C 313.1897984 370 272 362.3888416 272 353 Z" stroke-miterlimit="10"/></g><g transform="translate(-46,-6) scale(1,1)"><g><path fill="none" stroke="none"/><text fill="#000000" stroke="none" font-family="Arial" font-size="13px" font-style="normal" font-weight="bold" text-decoration="none" x="319.56640625" y="360">Filtrar anúncios</text></g></g><g transform="translate(-46,-6) scale(1,1)"><path fill="#C0C0C0" stroke="none" d="M 279 424 C 279 414.6111584 332.0542512 407 397.5 407 C 462.9457488 407 516 414.6111584 516 424 C 516 433.3888416 462.9457488 441 397.5 441 C 332.0542512 441 279 433.3888416 279 424 Z" opacity="0.2"/></g><g transform="translate(-46,-6) scale(1,1)"><path fill="#ffffff" stroke="none" d="M 272 417 C 272 407.6111584 325.0542512 400 390.5 400 C 455.9457488 400 509 407.6111584 509 417 C 509 426.3888416 455.9457488 434 390.5 434 C 325.0542512 434 272 426.3888416 272 417 Z"/></g><g transform="translate(-46,-6) scale(1,1)"><path fill="none" stroke="#000000" d="M 272 417 C 272 407.6111584 325.0542512 400 390.5 400 C 455.9457488 400 509 407.6111584 509 417 C 509 426.3888416 455.9457488 434 390.5 434 C 325.0542512 434 272 426.3888416 272 417 Z" stroke-miterlimit="10"/></g><g transform="translate(-46,-6) scale(1,1)"><g><path fill="none" stroke="none"/><text fill="#000000" stroke="none" font-family="Arial" font-size="13px" font-style="normal" font-weight="bold" text-decoration="none" x="331.977783203125" y="424">Visualizar meu perfil</text></g></g><g transform="translate(-46,-6) scale(1,1)"><path fill="#C0C0C0" stroke="none" d="M 279 104 C 279 94.6111584 332.0542512 87 397.5 87 C 462.9457488 87 516 94.6111584 516 104 C 516 113.3888416 462.9457488 121 397.5 121 C 332.0542512 121 279 113.3888416 279 104 Z" opacity="0.2"/></g><g transform="translate(-46,-6) scale(1,1)"><path fill="#ffffff" stroke="none" d="M 272 97 C 272 87.6111584 325.0542512 80 390.5 80 C 455.9457488 80 509 87.6111584 509 97 C 509 106.3888416 455.9457488 114 390.5 114 C 325.0542512 114 272 106.3888416 272 97 Z"/></g><g transform="translate(-46,-6) scale(1,1)"><path fill="none" stroke="#000000" d="M 272 97 C 272 87.6111584 325.0542512 80 390.5 80 C 455.9457488 80 509 87.6111584 509 97 C 509 106.3888416 455.9457488 114 390.5 114 C 325.0542512 114 272 106.3888416 272 97 Z" stroke-miterlimit="10"/></g><g transform="translate(-46,-6) scale(1,1)"><g><path fill="none" stroke="none"/><text fill="#000000" stroke="none" font-family="Arial" font-size="13px" font-style="normal" font-weight="bold" text-decoration="none" x="316.79736328125" y="104">Visualizar meus anúncios</text></g></g><g transform="translate(-46,-6) scale(1,1)"><path fill="#C0C0C0" stroke="none" d="M 583 400 C 583 390.6111584 622.3989376 383 671 383 C 719.6010624 383 759 390.6111584 759 400 C 759 409.3888416 719.6010624 417 671 417 C 622.3989376 417 583 409.3888416 583 400 Z" opacity="0.2"/></g><g transform="translate(-46,-6) scale(1,1)"><path fill="#ffffff" stroke="none" d="M 576 393 C 576 383.6111584 615.3989376 376 664 376 C 712.6010624 376 752 383.6111584 752 393 C 752 402.3888416 712.6010624 410 664 410 C 615.3989376 410 576 402.3888416 576 393 Z"/></g><g transform="translate(-46,-6) scale(1,1)"><path fill="none" stroke="#000000" d="M 576 393 C 576 383.6111584 615.3989376 376 664 376 C 712.6010624 376 752 383.6111584 752 393 C 752 402.3888416 712.6010624 410 664 410 C 615.3989376 410 576 402.3888416 576 393 Z" stroke-miterlimit="10"/></g><g transform="translate(-46,-6) scale(1,1)"><g><path fill="none" stroke="none"/><text fill="#000000" stroke="none" font-family="Arial" font-size="13px" font-style="normal" font-weight="bold" text-decoration="none" x="625.339599609375" y="400">Alterar senha</text></g></g><g transform="translate(-46,-6) scale(1,1)"><path fill="#C0C0C0" stroke="none" d="M 279 488 C 279 478.6111584 325.5623808 471 383 471 C 440.4376192 471 487 478.6111584 487 488 C 487 497.3888416 440.4376192 505 383 505 C 325.5623808 505 279 497.3888416 279 488 Z" opacity="0.2"/></g><g transform="translate(-46,-6) scale(1,1)"><path fill="#ffffff" stroke="none" d="M 272 481 C 272 471.6111584 318.5623808 464 376 464 C 433.4376192 464 480 471.6111584 480 481 C 480 490.3888416 433.4376192 498 376 498 C 318.5623808 498 272 490.3888416 272 481 Z"/></g><g transform="translate(-46,-6) scale(1,1)"><path fill="none" stroke="#000000" d="M 272 481 C 272 471.6111584 318.5623808 464 376 464 C 433.4376192 464 480 471.6111584 480 481 C 480 490.3888416 433.4376192 498 376 498 C 318.5623808 498 272 490.3888416 272 481 Z" stroke-miterlimit="10"/></g><g transform="translate(-46,-6) scale(1,1)"><g><path fill="none" stroke="none"/><text fill="#000000" stroke="none" font-family="Arial" font-size="13px" font-style="normal" font-weight="bold" text-decoration="none" x="311.685546875" y="488">Visualizar sobre o app</text></g></g><g transform="translate(-46,-6) scale(1,1)"><path fill="none" stroke="#000000" d="M 126 311 L 240 160 L 271 160" stroke-miterlimit="10"/></g><g transform="translate(-46,-6) scale(1,1)"><path fill="none" stroke="#000000" d="M 139 313 L 240 224 L 271 224" stroke-miterlimit="10"/></g><g transform="translate(-46,-6) scale(1,1)"><path fill="none" stroke="#000000" d="M 139 332 L 240 288 L 271 288" stroke-miterlimit="10"/></g><g transform="translate(-46,-6) scale(1,1)"><path fill="none" stroke="#000000" d="M 139 351 L 240 352 L 271 352" stroke-miterlimit="10"/></g><g transform="translate(-46,-6) scale(1,1)"><path fill="none" stroke="#000000" d="M 139 370 L 240 416 L 271 416" stroke-miterlimit="10"/></g><g transform="translate(-46,-6) scale(1,1)"><path fill="none" stroke="#000000" d="M 119 311 L 240 96 L 271 96" stroke-miterlimit="10"/></g><g transform="translate(-46,-6) scale(1,1)"><path fill="none" stroke="#000000" d="M 139 389 L 240 480 L 271 480" stroke-miterlimit="10"/></g><g transform="translate(-46,-6) scale(1,1)"><path fill="#C0C0C0" stroke="none" d="M 583 248 C 583 238.6111584 622.8466528 231 672 231 C 721.1533472 231 761 238.6111584 761 248 C 761 257.3888416 721.1533472 265 672 265 C 622.8466528 265 583 257.3888416 583 248 Z" opacity="0.2"/></g><g transform="translate(-46,-6) scale(1,1)"><path fill="#ffffff" stroke="none" d="M 576 241 C 576 231.6111584 615.8466528 224 665 224 C 714.1533472 224 754 231.6111584 754 241 C 754 250.3888416 714.1533472 258 665 258 C 615.8466528 258 576 250.3888416 576 241 Z"/></g><g transform="translate(-46,-6) scale(1,1)"><path fill="none" stroke="#000000" d="M 576 241 C 576 231.6111584 615.8466528 224 665 224 C 714.1533472 224 754 231.6111584 754 241 C 754 250.3888416 714.1533472 258 665 258 C 615.8466528 258 576 250.3888416 576 241 Z" stroke-miterlimit="10"/></g><g transform="translate(-46,-6) scale(1,1)"><g><path fill="none" stroke="none"/><text fill="#000000" stroke="none" font-family="Arial" font-size="13px" font-style="normal" font-weight="bold" text-decoration="none" x="610.44189453125" y="248">Visualizar detalhes</text></g></g><g transform="translate(-46,-6) scale(1,1)"><path fill="none" stroke="#000000" d="M 575 240 L 512 240 L 418 271" stroke-miterlimit="10" stroke-dasharray="3"/></g><g transform="translate(-46,-6) scale(1,1)"><path fill="none" stroke="#000000" d="M 426.3329772356994 263.81936699243613 L 418 271 L 428.96977900369654 271.8148304179758" stroke-miterlimit="10"/></g><g transform="translate(-46,-6) scale(1,1)"><g><path fill="none" stroke="none"/><text fill="#000000" stroke="none" font-family="Arial" font-size="13px" font-style="normal" font-weight="normal" text-decoration="none" x="519" y="235">«extend»</text></g></g><g transform="translate(-46,-6) scale(1,1)"><path fill="none" stroke="#000000" d="M 575 336 L 512 336 L 421 307" stroke-miterlimit="10" stroke-dasharray="3"/></g><g transform="translate(-46,-6) scale(1,1)"><path fill="none" stroke="#000000" d="M 431.9610366852227 306.07497308947194 L 421 307 L 429.40471617016993 314.0965305677411" stroke-miterlimit="10"/></g><g transform="translate(-46,-6) scale(1,1)"><g><path fill="none" stroke="none"/><text fill="#000000" stroke="none" font-family="Arial" font-size="13px" font-style="normal" font-weight="normal" text-decoration="none" x="518" y="334">«extend»</text></g></g><g transform="translate(-46,-6) scale(1,1)"><path fill="none" stroke="#000000" d="M 575 289 L 457 289" stroke-miterlimit="10" stroke-dasharray="3"/></g><g transform="translate(-46,-6) scale(1,1)"><path fill="none" stroke="#000000" d="M 467.16267485762415 284.790482243984 L 457 289 L 467.16267485762415 293.209517756016" stroke-miterlimit="10"/></g><g transform="translate(-46,-6) scale(1,1)"><g><path fill="none" stroke="none"/><text fill="#000000" stroke="none" font-family="Arial" font-size="13px" font-style="normal" font-weight="normal" text-decoration="none" x="520" y="285">«extend»</text></g></g><g transform="translate(-46,-6) scale(1,1)"><path fill="none" stroke="#000000" d="M 575 392 L 512 392 L 478 399" stroke-miterlimit="10" stroke-dasharray="3"/></g><g transform="translate(-46,-6) scale(1,1)"><path fill="none" stroke="#000000" d="M 487.1050419175124 392.8276251182918 L 478 399 L 488.80276501774216 401.07370874797937" stroke-miterlimit="10"/></g><g transform="translate(-46,-6) scale(1,1)"><g><path fill="none" stroke="none"/><text fill="#000000" stroke="none" font-family="Arial" font-size="13px" font-style="normal" font-weight="normal" text-decoration="none" x="520" y="389">«extend»</text></g></g><g transform="translate(-46,-6) scale(1,1)"><path fill="#C0C0C0" stroke="none" d="M 583 448 C 583 438.6111584 622.3989376 431 671 431 C 719.6010624 431 759 438.6111584 759 448 C 759 457.3888416 719.6010624 465 671 465 C 622.3989376 465 583 457.3888416 583 448 Z" opacity="0.2"/></g><g transform="translate(-46,-6) scale(1,1)"><path fill="#ffffff" stroke="none" d="M 576 441 C 576 431.6111584 615.3989376 424 664 424 C 712.6010624 424 752 431.6111584 752 441 C 752 450.3888416 712.6010624 458 664 458 C 615.3989376 458 576 450.3888416 576 441 Z"/></g><g transform="translate(-46,-6) scale(1,1)"><path fill="none" stroke="#000000" d="M 576 441 C 576 431.6111584 615.3989376 424 664 424 C 712.6010624 424 752 431.6111584 752 441 C 752 450.3888416 712.6010624 458 664 458 C 615.3989376 458 576 450.3888416 576 441 Z" stroke-miterlimit="10"/></g><g transform="translate(-46,-6) scale(1,1)"><g><path fill="none" stroke="none"/><text fill="#000000" stroke="none" font-family="Arial" font-size="13px" font-style="normal" font-weight="bold" text-decoration="none" x="632.207763671875" y="448">Alterar foto</text></g></g><g transform="translate(-46,-6) scale(1,1)"><path fill="#C0C0C0" stroke="none" d="M 583 144 C 583 134.6111584 622.3989376 127 671 127 C 719.6010624 127 759 134.6111584 759 144 C 759 153.3888416 719.6010624 161 671 161 C 622.3989376 161 583 153.3888416 583 144 Z" opacity="0.2"/></g><g transform="translate(-46,-6) scale(1,1)"><path fill="#ffffff" stroke="none" d="M 576 137 C 576 127.6111584 615.3989376 120 664 120 C 712.6010624 120 752 127.6111584 752 137 C 752 146.3888416 712.6010624 154 664 154 C 615.3989376 154 576 146.3888416 576 137 Z"/></g><g transform="translate(-46,-6) scale(1,1)"><path fill="none" stroke="#000000" d="M 576 137 C 576 127.6111584 615.3989376 120 664 120 C 712.6010624 120 752 127.6111584 752 137 C 752 146.3888416 712.6010624 154 664 154 C 615.3989376 154 576 146.3888416 576 137 Z" stroke-miterlimit="10"/></g><g transform="translate(-46,-6) scale(1,1)"><g><path fill="none" stroke="none"/><text fill="#000000" stroke="none" font-family="Arial" font-size="13px" font-style="normal" font-weight="bold" text-decoration="none" x="618.471435546875" y="144">Redefinir senha</text></g></g><g transform="translate(-46,-6) scale(1,1)"><path fill="none" stroke="#000000" d="M 575 136 L 512 136 L 431 149" stroke-miterlimit="10" stroke-dasharray="3"/></g><g transform="translate(-46,-6) scale(1,1)"><path fill="none" stroke="#000000" d="M 440.36719886168834 143.23323439997907 L 431 149 L 441.70132889711084 151.54589077453463" stroke-miterlimit="10"/></g><g transform="translate(-46,-6) scale(1,1)"><g><path fill="none" stroke="none"/><text fill="#000000" stroke="none" font-family="Arial" font-size="13px" font-style="normal" font-weight="normal" text-decoration="none" x="520" y="133">«extend»</text></g></g><g transform="translate(-46,-6) scale(1,1)"><path fill="none" stroke="#000000" d="M 575 440 L 512 440 L 485 435" stroke-miterlimit="10" stroke-dasharray="3"/></g><g transform="translate(-46,-6) scale(1,1)"><path fill="none" stroke="#000000" d="M 495.75928328392706 432.71137088714505 L 485 435 L 494.22626733609263 440.9896570054512" stroke-miterlimit="10"/></g><g transform="translate(-46,-6) scale(1,1)"><g><path fill="none" stroke="none"/><text fill="#000000" stroke="none" font-family="Arial" font-size="13px" font-style="normal" font-weight="normal" text-decoration="none" x="520" y="437">«extend»</text></g></g><g transform="translate(-46,-6) scale(1,1)"><path fill="#C0C0C0" stroke="none" d="M 279 560 C 279 550.6111584 325.5623808 543 383 543 C 440.4376192 543 487 550.6111584 487 560 C 487 569.3888416 440.4376192 577 383 577 C 325.5623808 577 279 569.3888416 279 560 Z" opacity="0.2"/></g><g transform="translate(-46,-6) scale(1,1)"><path fill="#ffffff" stroke="none" d="M 272 553 C 272 543.6111584 318.5623808 536 376 536 C 433.4376192 536 480 543.6111584 480 553 C 480 562.3888416 433.4376192 570 376 570 C 318.5623808 570 272 562.3888416 272 553 Z"/></g><g transform="translate(-46,-6) scale(1,1)"><path fill="none" stroke="#000000" d="M 272 553 C 272 543.6111584 318.5623808 536 376 536 C 433.4376192 536 480 543.6111584 480 553 C 480 562.3888416 433.4376192 570 376 570 C 318.5623808 570 272 562.3888416 272 553 Z" stroke-miterlimit="10"/></g><g transform="translate(-46,-6) scale(1,1)"><g><path fill="none" stroke="none"/><text fill="#000000" stroke="none" font-family="Arial" font-size="13px" font-style="normal" font-weight="bold" text-decoration="none" x="337.3427734375" y="560">Criar anúncio</text></g></g><g transform="translate(-46,-6) scale(1,1)"><path fill="none" stroke="#000000" d="M 125 392 L 240 552 L 271 552" stroke-miterlimit="10"/></g><g transform="translate(-46,-6) scale(1,1)"><path fill="#C0C0C0" stroke="none" d="M 279 624 C 279 614.6111584 326.010096 607 384 607 C 441.989904 607 489 614.6111584 489 624 C 489 633.3888416 441.989904 641 384 641 C 326.010096 641 279 633.3888416 279 624 Z" opacity="0.2"/></g><g transform="translate(-46,-6) scale(1,1)"><path fill="#ffffff" stroke="none" d="M 272 617 C 272 607.6111584 319.010096 600 377 600 C 434.989904 600 482 607.6111584 482 617 C 482 626.3888416 434.989904 634 377 634 C 319.010096 634 272 626.3888416 272 617 Z"/></g><g transform="translate(-46,-6) scale(1,1)"><path fill="none" stroke="#000000" d="M 272 617 C 272 607.6111584 319.010096 600 377 600 C 434.989904 600 482 607.6111584 482 617 C 482 626.3888416 434.989904 634 377 634 C 319.010096 634 272 626.3888416 272 617 Z" stroke-miterlimit="10"/></g><g transform="translate(-46,-6) scale(1,1)"><g><path fill="none" stroke="none"/><text fill="#000000" stroke="none" font-family="Arial" font-size="13px" font-style="normal" font-weight="bold" text-decoration="none" x="312.330078125" y="624">Visualizar lista de chat</text></g></g><g transform="translate(-46,-6) scale(1,1)"><path fill="none" stroke="#000000" d="M 118 392 L 240 616 L 271 616" stroke-miterlimit="10"/></g><g transform="translate(-46,-6) scale(1,1)"><path fill="#C0C0C0" stroke="none" d="M 583 624 C 583 614.6111584 612.3253456 607 648.5 607 C 684.6746544 607 714 614.6111584 714 624 C 714 633.3888416 684.6746544 641 648.5 641 C 612.3253456 641 583 633.3888416 583 624 Z" opacity="0.2"/></g><g transform="translate(-46,-6) scale(1,1)"><path fill="#ffffff" stroke="none" d="M 576 617 C 576 607.6111584 605.3253456 600 641.5 600 C 677.6746544 600 707 607.6111584 707 617 C 707 626.3888416 677.6746544 634 641.5 634 C 605.3253456 634 576 626.3888416 576 617 Z"/></g><g transform="translate(-46,-6) scale(1,1)"><path fill="none" stroke="#000000" d="M 576 617 C 576 607.6111584 605.3253456 600 641.5 600 C 677.6746544 600 707 607.6111584 707 617 C 707 626.3888416 677.6746544 634 641.5 634 C 605.3253456 634 576 626.3888416 576 617 Z" stroke-miterlimit="10"/></g><g transform="translate(-46,-6) scale(1,1)"><g><path fill="none" stroke="none"/><text fill="#000000" stroke="none" font-family="Arial" font-size="13px" font-style="normal" font-weight="bold" text-decoration="none" x="603.20458984375" y="624">Arquivar chat</text></g></g><g transform="translate(-46,-6) scale(1,1)"><path fill="none" stroke="#000000" d="M 575 617 L 483 617" stroke-miterlimit="10" stroke-dasharray="3"/></g><g transform="translate(-46,-6) scale(1,1)"><path fill="none" stroke="#000000" d="M 493.16267485762415 612.790482243984 L 483 617 L 493.16267485762415 621.209517756016" stroke-miterlimit="10"/></g><g transform="translate(-46,-6) scale(1,1)"><g><path fill="none" stroke="none"/><text fill="#000000" stroke="none" font-family="Arial" font-size="13px" font-style="normal" font-weight="normal" text-decoration="none" x="520" y="613">«extend»</text></g></g><g transform="translate(-46,-6) scale(1,1)"><path fill="#ffffff" stroke="none" d="M 882.1625241477273 161.68 C 882.1625241477273 156.886167936 886.0483664726727 153 890.841796875 153 C 895.6352272773273 153 899.5210696022727 156.886167936 899.5210696022727 161.68 C 899.5210696022727 166.47383206400002 895.6352272773273 170.36 890.841796875 170.36 C 886.0483664726727 170.36 882.1625241477273 166.47383206400002 882.1625241477273 161.68 Z"/></g><g transform="translate(-46,-6) scale(1,1)"><path fill="none" stroke="#000000" d="M 882.1625241477273 161.68 C 882.1625241477273 156.886167936 886.0483664726727 153 890.841796875 153 C 895.6352272773273 153 899.5210696022727 156.886167936 899.5210696022727 161.68 C 899.5210696022727 166.47383206400002 895.6352272773273 170.36 890.841796875 170.36 C 886.0483664726727 170.36 882.1625241477273 166.47383206400002 882.1625241477273 161.68 Z" stroke-miterlimit="10"/></g><g transform="translate(-46,-6) scale(1,1)"><path fill="none" stroke="#000000" d="M 890.841796875 170.36 L 890.841796875 187.64" stroke-miterlimit="10"/></g><g transform="translate(-46,-6) scale(1,1)"><path fill="none" stroke="#000000" d="M 881.6519786931818 176.84 L 900.0316150568182 176.84" stroke-miterlimit="10"/></g><g transform="translate(-46,-6) scale(1,1)"><path fill="none" stroke="#000000" d="M 890.841796875 187.64 L 878.0781605113636 205" stroke-miterlimit="10"/></g><g transform="translate(-46,-6) scale(1,1)"><path fill="none" stroke="#000000" d="M 890.841796875 187.64 L 903.6054332386364 205" stroke-miterlimit="10"/></g><g transform="translate(-46,-6) scale(1,1)"><g><path fill="none" stroke="none"/><text fill="#000000" stroke="none" font-family="Arial" font-size="13px" font-style="normal" font-weight="bold" text-decoration="none" x="862.29638671875" y="225.5">Facebook</text></g></g><g transform="translate(-46,-6) scale(1,1)"><path fill="none" stroke="#000000" d="M 855 189 L 431 165" stroke-miterlimit="10"/></g><g transform="translate(-46,-6) scale(1,1)"><path fill="none" stroke="#000000" d="M 438 220 L 855 193" stroke-miterlimit="10"/></g></g></svg>